<svg width="26" height="33" viewBox="0 0 26 33" fill="none" xmlns="http://www.w3.org/2000/svg">
<path d="M9.50375 22.3572C11.8432 22.1658 14.1934 22.1658 16.5329 22.3572C17.8069 22.4326 19.0748 22.5944 20.3286 22.8416C23.0419 23.3995 24.8132 24.3096 25.5724 25.7776C26.1425 26.9233 26.1425 28.2871 25.5724 29.4328C24.8132 30.9008 23.1122 31.8697 20.3005 32.3688C19.0477 32.6253 17.7794 32.7921 16.5048 32.8679C15.3239 33 14.143 33 12.948 33H10.7971C10.3473 32.9413 9.91144 32.9119 9.4897 32.9119C8.21499 32.8453 6.94649 32.6835 5.69396 32.4275C2.98071 31.899 1.20936 30.9595 0.450214 29.4915C0.157156 28.9229 0.00265538 28.2877 0.000169354 27.6419C-0.0057595 26.9922 0.144068 26.3513 0.436156 25.7776C1.18125 24.3096 2.95259 23.3554 5.69396 22.8416C6.95201 22.5909 8.22484 22.4291 9.50375 22.3572ZM13.0043 0C17.7171 0 21.5377 3.98941 21.5377 8.91059C21.5377 13.8318 17.7171 17.8212 13.0043 17.8212C8.29141 17.8212 4.47089 13.8318 4.47089 8.91059C4.47089 3.98941 8.29141 0 13.0043 0Z" fill="#6B7280"/>
</svg>
