<svg width="395" height="73" viewBox="0 0 395 73" fill="none" xmlns="http://www.w3.org/2000/svg">
<path d="M0 15.9999V29.9999C0 31.1045 0.895431 31.9999 2 31.9999H16H29.9856C31.0958 31.9999 31.9935 31.0957 31.9855 29.9856L31.8857 16.1142V2.11423C31.8857 1.00965 30.9903 0.114225 29.8857 0.114225H15.8857L2.01439 0.014431C0.904223 0.00644493 0 0.904186 0 2.01438V15.9999Z" fill="#0369A1"/>
<path d="M0 55.028V69.9999H16H32V54.9699V39.9999C29.0571 42.8124 29 42.8124 26.5 45.6074L23 50.3124C23 50.3124 23 49.3749 19.5 45.6249C16 41.4018 16 41.4018 16 41.4018C16 41.4018 16 41.4018 12.3429 45.6074C9 49.3749 9 50.3124 9 50.3124C9 50.3124 7.1 47.6436 5.5 45.6249C3.9 43.6062 0 39.9999 0 39.9999V55.028Z" fill="#0369A1"/>
<path d="M40 29.9999H72V-0.00012207C69.0571 2.81232 69 2.81232 66.5 5.60735L63 10.3123C63 10.3123 63 9.37482 59.5 5.62482C56 1.40175 56 1.40175 56 1.40175C56 1.40175 56 1.40174 52.3429 5.60735C49 9.37482 49 10.3123 49 10.3123C49 10.3123 47.1 7.64351 45.5 5.62482C43.9 3.60613 40 -0.00012207 40 -0.00012207V29.9999Z" fill="#D97706"/>
<path d="M40 29.9999C40 31.1044 40.8954 31.9999 42 31.9999H70C71.1046 31.9999 72 31.1044 72 29.9999V21.9999C72 20.8953 71.1046 19.9999 70 19.9999H42C40.8954 19.9999 40 20.8953 40 21.9999V29.9999Z" fill="#D97706"/>
<path d="M0 65.9999V69.9999C0 71.1045 0.895431 71.9999 2 71.9999H16H30C31.1046 71.9999 32 71.1045 32 69.9999V65.9999V61.9999C32 60.8954 31.1046 59.9999 30 59.9999H16H2C0.895431 59.9999 0 60.8954 0 61.9999V65.9999Z" fill="#0369A1"/>
<path d="M0 16.2253V30.4506C0 31.5552 0.895431 32.4506 2 32.4506H16.2254H30.4363C31.5465 32.4506 32.4442 31.5464 32.4362 30.4362L32.3348 16.3412V2.11582C32.3348 1.01125 31.4394 0.115814 30.3348 0.115814H16.1095L2.01439 0.0144119C0.904226 0.00642395 0 0.904167 0 2.01436V16.2253Z" fill="#0369A1"/>
<path d="M39.5493 55.7746V69.9999C39.5493 71.1045 40.4447 71.9999 41.5493 71.9999H55.7747H70C71.1046 71.9999 72 71.1045 72 69.9999V55.7746V41.5492C72 40.4447 71.1046 39.5492 70 39.5492H55.7747H41.5493C40.4447 39.5492 39.5493 40.4447 39.5493 41.5492V55.7746Z" fill="#0369A1"/>
<path d="M92.1136 58.9999V12.4545H99.1364V34.6818H99.7045L119.227 12.4545H128.068L109.295 33.409L128.136 58.9999H119.682L104.636 38.2045L99.1364 44.5227V58.9999H92.1136ZM136.256 58.9999V24.0908H143.051V58.9999H136.256ZM139.688 18.7045C138.506 18.7045 137.491 18.3105 136.642 17.5227C135.809 16.7196 135.392 15.7651 135.392 14.659C135.392 13.5378 135.809 12.5833 136.642 11.7954C137.491 10.9924 138.506 10.5908 139.688 10.5908C140.869 10.5908 141.877 10.9924 142.71 11.7954C143.559 12.5833 143.983 13.5378 143.983 14.659C143.983 15.7651 143.559 16.7196 142.71 17.5227C141.877 18.3105 140.869 18.7045 139.688 18.7045ZM158.989 38.2727V58.9999H152.193V24.0908H158.716V29.7727H159.148C159.951 27.9242 161.208 26.4393 162.92 25.3181C164.648 24.1969 166.822 23.6363 169.443 23.6363C171.822 23.6363 173.905 24.1363 175.693 25.1363C177.481 26.1212 178.867 27.5908 179.852 29.5454C180.837 31.4999 181.33 33.9166 181.33 36.7954V58.9999H174.534V37.6136C174.534 35.0833 173.875 33.106 172.557 31.6818C171.239 30.2424 169.428 29.5227 167.125 29.5227C165.549 29.5227 164.148 29.8636 162.92 30.5454C161.708 31.2272 160.746 32.2272 160.034 33.5454C159.337 34.8484 158.989 36.4242 158.989 38.2727ZM205.08 72.8181C202.307 72.8181 199.92 72.4545 197.92 71.7272C195.936 70.9999 194.314 70.0378 193.057 68.8408C191.799 67.6439 190.86 66.3333 190.239 64.909L196.08 62.4999C196.489 63.1666 197.034 63.8712 197.716 64.6136C198.413 65.3712 199.352 66.0151 200.534 66.5454C201.731 67.0757 203.269 67.3408 205.148 67.3408C207.723 67.3408 209.852 66.7121 211.534 65.4545C213.216 64.2121 214.057 62.2272 214.057 59.4999V52.6363H213.625C213.216 53.3787 212.625 54.2045 211.852 55.1136C211.095 56.0227 210.049 56.8105 208.716 57.4772C207.383 58.1439 205.648 58.4772 203.511 58.4772C200.754 58.4772 198.269 57.8333 196.057 56.5454C193.86 55.2424 192.117 53.3257 190.83 50.7954C189.557 48.2499 188.92 45.1212 188.92 41.409C188.92 37.6969 189.549 34.5151 190.807 31.8636C192.08 29.2121 193.822 27.1818 196.034 25.7727C198.246 24.3484 200.754 23.6363 203.557 23.6363C205.723 23.6363 207.473 23.9999 208.807 24.7272C210.14 25.4393 211.178 26.2727 211.92 27.2272C212.678 28.1818 213.261 29.0227 213.67 29.7499H214.17V24.0908H220.83V59.7727C220.83 62.7727 220.133 65.2348 218.739 67.159C217.345 69.0833 215.458 70.5075 213.08 71.4318C210.716 72.356 208.049 72.8181 205.08 72.8181ZM205.011 52.8408C206.966 52.8408 208.617 52.3863 209.966 51.4772C211.33 50.553 212.36 49.2348 213.057 47.5227C213.769 45.7954 214.125 43.7272 214.125 41.3181C214.125 38.9696 213.777 36.9015 213.08 35.1136C212.383 33.3257 211.36 31.9318 210.011 30.9318C208.663 29.9166 206.996 29.409 205.011 29.409C202.966 29.409 201.261 29.9393 199.898 30.9999C198.534 32.0454 197.504 33.4696 196.807 35.2727C196.125 37.0757 195.784 39.0908 195.784 41.3181C195.784 43.606 196.133 45.6136 196.83 47.3408C197.527 49.0681 198.557 50.4166 199.92 51.3863C201.299 52.356 202.996 52.8408 205.011 52.8408ZM243.011 59.6818C240.193 59.6818 237.678 58.9621 235.466 57.5227C233.269 56.0681 231.542 53.9999 230.284 51.3181C229.042 48.6212 228.42 45.3863 228.42 41.6136C228.42 37.8408 229.049 34.6136 230.307 31.9318C231.58 29.2499 233.322 27.1969 235.534 25.7727C237.746 24.3484 240.254 23.6363 243.057 23.6363C245.223 23.6363 246.966 23.9999 248.284 24.7272C249.617 25.4393 250.648 26.2727 251.375 27.2272C252.117 28.1818 252.693 29.0227 253.102 29.7499H253.511V12.4545H260.307V58.9999H253.67V53.5681H253.102C252.693 54.3105 252.102 55.159 251.33 56.1136C250.572 57.0681 249.527 57.9015 248.193 58.6136C246.86 59.3257 245.133 59.6818 243.011 59.6818ZM244.511 53.8863C246.466 53.8863 248.117 53.3712 249.466 52.3408C250.83 51.2954 251.86 49.8484 252.557 47.9999C253.269 46.1515 253.625 43.9999 253.625 41.5454C253.625 39.1212 253.277 36.9999 252.58 35.1818C251.883 33.3636 250.86 31.9469 249.511 30.9318C248.163 29.9166 246.496 29.409 244.511 29.409C242.466 29.409 240.761 29.9393 239.398 30.9999C238.034 32.0605 237.004 33.5075 236.307 35.3408C235.625 37.1742 235.284 39.2424 235.284 41.5454C235.284 43.8787 235.633 45.9772 236.33 47.8408C237.027 49.7045 238.057 51.1818 239.42 52.2727C240.799 53.3484 242.496 53.8863 244.511 53.8863ZM284.71 59.7045C281.438 59.7045 278.581 58.9545 276.142 57.4545C273.703 55.9545 271.809 53.856 270.46 51.159C269.112 48.4621 268.438 45.3105 268.438 41.7045C268.438 38.0833 269.112 34.9166 270.46 32.2045C271.809 29.4924 273.703 27.3863 276.142 25.8863C278.581 24.3863 281.438 23.6363 284.71 23.6363C287.983 23.6363 290.839 24.3863 293.278 25.8863C295.718 27.3863 297.612 29.4924 298.96 32.2045C300.309 34.9166 300.983 38.0833 300.983 41.7045C300.983 45.3105 300.309 48.4621 298.96 51.159C297.612 53.856 295.718 55.9545 293.278 57.4545C290.839 58.9545 287.983 59.7045 284.71 59.7045ZM284.733 53.9999C286.854 53.9999 288.612 53.4393 290.006 52.3181C291.4 51.1969 292.43 49.7045 293.097 47.8408C293.778 45.9772 294.119 43.9242 294.119 41.6818C294.119 39.4545 293.778 37.409 293.097 35.5454C292.43 33.6666 291.4 32.159 290.006 31.0227C288.612 29.8863 286.854 29.3181 284.733 29.3181C282.597 29.3181 280.824 29.8863 279.415 31.0227C278.021 32.159 276.983 33.6666 276.301 35.5454C275.634 37.409 275.301 39.4545 275.301 41.6818C275.301 43.9242 275.634 45.9772 276.301 47.8408C276.983 49.7045 278.021 51.1969 279.415 52.3181C280.824 53.4393 282.597 53.9999 284.733 53.9999ZM308.568 58.9999V24.0908H315.091V29.7727H315.523C316.25 27.8484 317.439 26.3484 319.091 25.2727C320.742 24.1818 322.72 23.6363 325.023 23.6363C327.356 23.6363 329.311 24.1818 330.886 25.2727C332.477 26.3636 333.652 27.8636 334.409 29.7727H334.773C335.606 27.909 336.932 26.4242 338.75 25.3181C340.568 24.1969 342.735 23.6363 345.25 23.6363C348.417 23.6363 351 24.6287 353 26.6136C355.015 28.5984 356.023 31.5908 356.023 35.5908V58.9999H349.227V36.2272C349.227 33.8636 348.583 32.1515 347.295 31.0908C346.008 30.0302 344.47 29.4999 342.682 29.4999C340.47 29.4999 338.75 30.1818 337.523 31.5454C336.295 32.8939 335.682 34.6287 335.682 36.7499V58.9999H328.909V35.7954C328.909 33.9015 328.318 32.3787 327.136 31.2272C325.955 30.0757 324.417 29.4999 322.523 29.4999C321.235 29.4999 320.045 29.8408 318.955 30.5227C317.879 31.1893 317.008 32.1212 316.341 33.3181C315.689 34.5151 315.364 35.9015 315.364 37.4772V58.9999H308.568ZM391.29 32.6136L385.131 33.7045C384.873 32.9166 384.464 32.1666 383.903 31.4545C383.358 30.7424 382.616 30.159 381.676 29.7045C380.737 29.2499 379.563 29.0227 378.153 29.0227C376.229 29.0227 374.623 29.4545 373.335 30.3181C372.047 31.1666 371.403 32.2651 371.403 33.6136C371.403 34.7802 371.835 35.7196 372.699 36.4318C373.563 37.1439 374.956 37.7272 376.881 38.1818L382.426 39.4545C385.638 40.1969 388.032 41.3408 389.608 42.8863C391.184 44.4318 391.972 46.4393 391.972 48.909C391.972 50.9999 391.366 52.8636 390.153 54.4999C388.956 56.1212 387.282 57.3939 385.131 58.3181C382.994 59.2424 380.517 59.7045 377.699 59.7045C373.79 59.7045 370.6 58.8712 368.131 57.2045C365.661 55.5227 364.146 53.1363 363.585 50.0454L370.153 49.0454C370.563 50.7575 371.403 52.053 372.676 52.9318C373.949 53.7954 375.608 54.2272 377.653 54.2272C379.881 54.2272 381.661 53.7651 382.994 52.8408C384.328 51.9015 384.994 50.7575 384.994 49.409C384.994 48.3181 384.585 47.4015 383.767 46.659C382.964 45.9166 381.729 45.356 380.062 44.9772L374.153 43.6818C370.896 42.9393 368.487 41.7575 366.926 40.1363C365.381 38.5151 364.608 36.4621 364.608 33.9772C364.608 31.9166 365.184 30.1136 366.335 28.5681C367.487 27.0227 369.078 25.8181 371.108 24.9545C373.138 24.0757 375.464 23.6363 378.085 23.6363C381.858 23.6363 384.828 24.4545 386.994 26.0908C389.161 27.7121 390.593 29.8863 391.29 32.6136Z" fill="#0369A1"/>
<path d="M137.005 9.43792L135.495 12.863L139.613 14.6778L143.731 16.4926L145.246 13.0542L146.756 9.62954C145.715 9.93915 145.7 9.93266 144.775 10.2885L143.4 10.9679C143.4 10.9679 143.494 10.7534 142.971 9.49855C142.496 8.13546 142.496 8.13546 142.496 8.13546C142.496 8.13546 142.496 8.13546 141.131 8.68276C139.891 9.16548 139.797 9.37995 139.797 9.37995C139.797 9.37995 139.577 8.55391 139.368 7.91062C139.16 7.26733 138.52 5.99998 138.52 5.99998L137.005 9.43792Z" fill="#D97706"/>
</svg>
