<svg width="393" height="73" fill="none" xmlns="http://www.w3.org/2000/svg">
  <path d="M0 16v14c0 1.1046.895431 2 2 2h27.9856c1.1102 0 2.0079-.9042 1.9999-2.0144l-.0998-13.8713V2.11429c0-1.10457-.8954-2.000004-2-2.000004h-14L2.01439.014492C.904223.00650597 0 .904247 0 2.01444V16Z" fill="#0369A1"/>
  <path d="M40 15.028V30h32V0c-2.9429 2.81244-3 2.81244-5.5 5.60748L63 10.3124s0-.93746-3.5-4.68746L56 1.40187l-3.6571 4.20561C49 9.37494 49 10.3124 49 10.3124s-1.9-2.66877-3.5-4.68746S40 0 40 0v15.028Z" fill="#D97706"/>
  <path d="M0 55.028V70h32V40c-2.9429 2.8124-3 2.8124-5.5 5.6075L23 50.3124s0-.9375-3.5-4.6875l-3.5-4.223-3.6571 4.2056C9 49.3749 9 50.3124 9 50.3124s-1.9-2.6688-3.5-4.6875C3.9 43.6063 0 40 0 40v15.028Z" fill="#0369A1"/>
  <path d="M40 26v4c0 1.1046.8954 2 2 2h28c1.1046 0 2-.8954 2-2v-8c0-1.1046-.8954-2-2-2H42c-1.1046 0-2 .8954-2 2v4Z" fill="#D97706"/>
  <path d="M0 66v4c0 1.1046.895431 2 2 2h28c1.1046 0 2-.8954 2-2v-8c0-1.1046-.8954-2-2-2H2c-1.104569 0-2 .8954-2 2v4Zm0-49.7747v14.2254c0 1.1046.895431 2 2 2h28.4363c1.1102 0 2.0079-.9042 1.9999-2.0144l-.1014-14.0951V2.11588c0-1.10457-.8954-2.000005-2-2.000005H16.1095L2.01439.014473C.904226.00648499 0 .904228 0 2.01442V16.2253Zm39.5493 39.5493V70c0 1.1046.8954 2 2 2H70c1.1046 0 2-.8954 2-2V41.5493c0-1.1046-.8954-2-2-2H41.5493c-1.1046 0-2 .8954-2 2v14.2253ZM90.1136 59V12.4545h7.0228v22.2273h.5681l19.5225-22.2273h8.841l-18.773 20.9546L126.136 59h-8.454l-15.046-20.7955-5.4996 6.3182V59h-7.0228Zm44.1424 0V24.0909h6.795V59h-6.795Zm3.432-40.2955c-1.182 0-2.197-.3939-3.046-1.1818-.833-.803-1.25-1.7576-1.25-2.8636 0-1.1212.417-2.0758 1.25-2.8636.849-.8031 1.864-1.2046 3.046-1.2046 1.181 0 2.189.4015 3.022 1.2046.849.7878 1.273 1.7424 1.273 2.8636 0 1.106-.424 2.0606-1.273 2.8636-.833.7879-1.841 1.1818-3.022 1.1818Zm19.301 19.5682V59h-6.796V24.0909h6.523v5.6818h.432c.803-1.8485 2.06-3.3333 3.772-4.4545 1.728-1.1212 3.902-1.6818 6.523-1.6818 2.379 0 4.462.5 6.25 1.5 1.788.9848 3.174 2.4545 4.159 4.4091.985 1.9545 1.478 4.3712 1.478 7.25V59h-6.796V37.6136c0-2.5303-.659-4.5075-1.977-5.9318-1.318-1.4394-3.129-2.1591-5.432-2.1591-1.576 0-2.977.3409-4.205 1.0228-1.212.6818-2.174 1.6818-2.886 3-.697 1.303-1.045 2.8787-1.045 4.7272Zm46.091 34.5455c-2.773 0-5.16-.3637-7.16-1.0909-1.984-.7273-3.606-1.6894-4.863-2.8864-1.258-1.197-2.197-2.5076-2.818-3.9318L194.08 62.5c.409.6667.954 1.3712 1.636 2.1136.697.7576 1.636 1.4016 2.818 1.9319 1.197.5303 2.735.7954 4.614.7954 2.575 0 4.704-.6288 6.386-1.8864 1.682-1.2424 2.523-3.2272 2.523-5.9545v-6.8636h-.432c-.409.7424-1 1.5681-1.773 2.4772-.757.9091-1.803 1.697-3.136 2.3637-1.333.6666-3.068 1-5.205 1-2.757 0-5.242-.644-7.454-1.9318-2.197-1.3031-3.94-3.2197-5.227-5.75-1.273-2.5455-1.91-5.6743-1.91-9.3864 0-3.7121.629-6.8939 1.887-9.5455 1.273-2.6515 3.015-4.6818 5.227-6.0909 2.212-1.4242 4.72-2.1363 7.523-2.1363 2.166 0 3.916.3636 5.25 1.0909 1.333.7121 2.371 1.5454 3.113 2.5.758.9545 1.341 1.7954 1.75 2.5227h.5v-5.6591h6.66v35.6818c0 3-.697 5.4621-2.091 7.3864-1.394 1.9242-3.281 3.3485-5.659 4.2727-2.364.9243-5.031 1.3864-8 1.3864Zm-.069-19.9773c1.955 0 3.606-.4545 4.955-1.3636 1.364-.9243 2.394-2.2425 3.091-3.9546.712-1.7272 1.068-3.7954 1.068-6.2045 0-2.3485-.348-4.4167-1.045-6.2046-.697-1.7878-1.72-3.1818-3.069-4.1818-1.348-1.0151-3.015-1.5227-5-1.5227-2.045 0-3.75.5303-5.113 1.5909-1.364 1.0455-2.394 2.4697-3.091 4.2727-.682 1.8031-1.023 3.8182-1.023 6.0455 0 2.2879.349 4.2954 1.046 6.0227.697 1.7273 1.727 3.0758 3.09 4.0455 1.379.9697 3.076 1.4545 5.091 1.4545Zm38 6.8409c-2.818 0-5.333-.7197-7.545-2.1591-2.197-1.4545-3.924-3.5227-5.182-6.2045-1.242-2.697-1.864-5.9318-1.864-9.7046 0-3.7727.629-7 1.887-9.6818 1.273-2.6818 3.015-4.7348 5.227-6.1591 2.212-1.4242 4.72-2.1363 7.523-2.1363 2.166 0 3.909.3636 5.227 1.0909 1.333.7121 2.364 1.5454 3.091 2.5.742.9545 1.318 1.7954 1.727 2.5227h.409V12.4545h6.796V59h-6.637v-5.4318h-.568c-.409.7424-1 1.5909-1.772 2.5454-.758.9546-1.803 1.7879-3.137 2.5-1.333.7122-3.06 1.0682-5.182 1.0682Zm1.5-5.7954c1.955 0 3.606-.5152 4.955-1.5455 1.364-1.0454 2.394-2.4924 3.091-4.3409.712-1.8485 1.068-4 1.068-6.4545 0-2.4243-.348-4.5455-1.045-6.3637s-1.72-3.2348-3.069-4.25c-1.348-1.0151-3.015-1.5227-5-1.5227-2.045 0-3.75.5303-5.113 1.5909-1.364 1.0606-2.394 2.5076-3.091 4.3409-.682 1.8333-1.023 3.9015-1.023 6.2046 0 2.3333.349 4.4318 1.046 6.2954.697 1.8636 1.727 3.3409 3.09 4.4318 1.379 1.0758 3.076 1.6137 5.091 1.6137Zm40.199 5.8181c-3.272 0-6.129-.75-8.568-2.25s-4.333-3.5984-5.682-6.2954c-1.348-2.697-2.022-5.8485-2.022-9.4546 0-3.6212.674-6.7878 2.022-9.5 1.349-2.7121 3.243-4.8181 5.682-6.3181 2.439-1.5 5.296-2.25 8.568-2.25 3.273 0 6.129.75 8.568 2.25 2.44 1.5 4.334 3.606 5.682 6.3181 1.349 2.7122 2.023 5.8788 2.023 9.5 0 3.6061-.674 6.7576-2.023 9.4546-1.348 2.697-3.242 4.7954-5.682 6.2954-2.439 1.5-5.295 2.25-8.568 2.25ZM282.733 54c2.121 0 3.879-.5606 5.273-1.6818 1.394-1.1212 2.424-2.6137 3.091-4.4773.681-1.8636 1.022-3.9167 1.022-6.1591 0-2.2273-.341-4.2727-1.022-6.1363-.667-1.8788-1.697-3.3864-3.091-4.5228-1.394-1.1363-3.152-1.7045-5.273-1.7045-2.136 0-3.909.5682-5.318 1.7045-1.394 1.1364-2.432 2.644-3.114 4.5228-.667 1.8636-1 3.909-1 6.1363 0 2.2424.333 4.2955 1 6.1591.682 1.8636 1.72 3.3561 3.114 4.4773C278.824 53.4394 280.597 54 282.733 54Zm23.835 5V24.0909h6.523v5.6818h.432c.727-1.9242 1.916-3.4242 3.568-4.5 1.651-1.0909 3.629-1.6363 5.932-1.6363 2.333 0 4.288.5454 5.863 1.6363 1.591 1.0909 2.766 2.5909 3.523 4.5h.364c.833-1.8636 2.159-3.3485 3.977-4.4545 1.818-1.1212 3.985-1.6818 6.5-1.6818 3.167 0 5.75.9924 7.75 2.9772 2.015 1.9849 3.023 4.9773 3.023 8.9773V59h-6.796V36.2273c0-2.3637-.644-4.0758-1.932-5.1364-1.287-1.0606-2.825-1.5909-4.613-1.5909-2.212 0-3.932.6818-5.159 2.0455-1.228 1.3484-1.841 3.0833-1.841 5.2045V59h-6.773V35.7955c0-1.894-.591-3.4167-1.773-4.5682-1.181-1.1515-2.719-1.7273-4.613-1.7273-1.288 0-2.478.3409-3.568 1.0227-1.076.6667-1.947 1.5985-2.614 2.7955-.652 1.197-.977 2.5833-.977 4.1591V59h-6.796Zm82.722-26.3864-6.159 1.0909c-.258-.7878-.667-1.5378-1.228-2.25-.545-.7121-1.287-1.2954-2.227-1.75-.939-.4545-2.113-.6818-3.523-.6818-1.924 0-3.53.4318-4.818 1.2955-1.288.8485-1.932 1.947-1.932 3.2954 0 1.1667.432 2.1061 1.296 2.8182.864.7121 2.257 1.2955 4.182 1.75l5.545 1.2727c3.212.7425 5.606 1.8864 7.182 3.4319 1.576 1.5454 2.364 3.553 2.364 6.0227 0 2.0909-.606 3.9545-1.819 5.5909-1.197 1.6212-2.871 2.8939-5.022 3.8182-2.137.9242-4.614 1.3863-7.432 1.3863-3.909 0-7.099-.8333-9.568-2.5-2.47-1.6818-3.985-4.0681-4.546-7.159l6.568-1c.41 1.7121 1.25 3.0075 2.523 3.8863 1.273.8637 2.932 1.2955 4.977 1.2955 2.228 0 4.008-.4621 5.341-1.3864 1.334-.9394 2-2.0833 2-3.4318 0-1.0909-.409-2.0076-1.227-2.75-.803-.7424-2.038-1.303-3.705-1.6818l-5.909-1.2955c-3.257-.7424-5.666-1.9242-7.227-3.5454-1.545-1.6212-2.318-3.6743-2.318-6.1591 0-2.0606.576-3.8637 1.727-5.4091 1.152-1.5455 2.743-2.75 4.773-3.6137 2.03-.8787 4.356-1.3181 6.977-1.3181 3.773 0 6.743.8181 8.909 2.4545 2.167 1.6212 3.599 3.7955 4.296 6.5227Z" fill="#0369A1"/>
  <path d="M132 12.5919v4.5747h11V7.99996c-1.012.85936-1.031.85936-1.891 1.71339l-1.203 1.43765s0-.2865-1.203-1.43231L137.5 8.42831l-1.257 1.28504c-1.149 1.15115-1.149 1.43765-1.149 1.43765s-.653-.8155-1.203-1.43231c-.55-.61682-1.891-1.71873-1.891-1.71873v4.59194Z" fill="#D97706"/>
  <path d="M132 16.9375c0 1.1391.923 2.0625 2.063 2.0625h6.875c1.139 0 2.062-.9234 2.062-2.0625s-.923-2.0625-2.062-2.0625h-6.875c-1.14 0-2.063.9234-2.063 2.0625Z" fill="#D97706"/>
</svg>
